<svg width="278" height="45" viewBox="0 0 278 45" fill="none" xmlns="http://www.w3.org/2000/svg">
<path d="M6.23428 2.1613V33.0002H0.0488281V2.1613H6.23428Z" fill="white"/>
<path d="M13.5826 2.1613H20.0773L15.3057 13.2951H11.0643L13.5826 2.1613Z" fill="white"/>
<path d="M54.9099 8.17003C57.9142 8.17003 60.3295 9.09785 62.1557 10.9535C64.0113 12.7797 64.9391 15.3422 64.9391 18.6411V33.0002H58.7537V19.4806C58.7537 17.566 58.2677 16.108 57.2957 15.1066C56.3237 14.0757 54.9982 13.5602 53.3193 13.5602C51.6404 13.5602 50.3002 14.0757 49.2988 15.1066C48.3268 16.108 47.8408 17.566 47.8408 19.4806V33.0002H41.6553V19.4806C41.6553 17.566 41.1693 16.108 40.1973 15.1066C39.2253 14.0757 37.8999 13.5602 36.221 13.5602C34.5126 13.5602 33.1577 14.0757 32.1562 15.1066C31.1842 16.108 30.6982 17.566 30.6982 19.4806V33.0002H24.5128V8.52348H30.6982V11.4837C31.4935 10.4528 32.5097 9.64275 33.7468 9.05366C35.0133 8.46457 36.3977 8.17003 37.8999 8.17003C39.8144 8.17003 41.5228 8.58239 43.025 9.40712C44.5271 10.2024 45.6906 11.3511 46.5153 12.8533C47.3106 11.4395 48.4593 10.3055 49.9615 9.4513C51.4931 8.59712 53.1426 8.17003 54.9099 8.17003Z" fill="white"/>
<path d="M91.9843 33.3095C89.8341 33.3095 87.8901 32.9413 86.1523 32.2049C84.4439 31.4686 83.089 30.4082 82.0876 29.0238C81.0861 27.6395 80.5707 26.0048 80.5412 24.1197H87.1685C87.2568 25.3862 87.6987 26.3877 88.4939 27.124C89.3187 27.8604 90.4379 28.2286 91.8517 28.2286C93.295 28.2286 94.429 27.8898 95.2537 27.2124C96.0785 26.5055 96.4908 25.5924 96.4908 24.4731C96.4908 23.56 96.211 22.8089 95.6514 22.2198C95.0917 21.6308 94.3848 21.1742 93.5307 20.8502C92.7059 20.4968 91.5572 20.1138 90.0845 19.7015C88.0816 19.1124 86.4468 18.538 85.1803 17.9784C83.9432 17.3893 82.8681 16.5204 81.955 15.3717C81.0714 14.1935 80.6296 12.6324 80.6296 10.6884C80.6296 8.86221 81.0861 7.27166 81.9992 5.91675C82.9123 4.56184 84.1936 3.53094 85.843 2.82403C87.4925 2.08766 89.3776 1.71948 91.4983 1.71948C94.6794 1.71948 97.2567 2.50003 99.2301 4.06112C101.233 5.59275 102.338 7.74294 102.544 10.5117H95.7397C95.6808 9.4513 95.2243 8.58239 94.3701 7.90494C93.5454 7.19803 92.4408 6.84457 91.0565 6.84457C89.8488 6.84457 88.8768 7.15385 88.1405 7.77239C87.4336 8.39094 87.0801 9.2893 87.0801 10.4675C87.0801 11.2922 87.3452 11.9844 87.8754 12.544C88.435 13.0742 89.1125 13.516 89.9077 13.8695C90.7325 14.1935 91.8812 14.5764 93.3539 15.0182C95.3568 15.6073 96.9916 16.1964 98.2581 16.7855C99.5247 17.3746 100.614 18.2582 101.528 19.4364C102.441 20.6146 102.897 22.1609 102.897 24.0755C102.897 25.7249 102.47 27.2566 101.616 28.6704C100.762 30.0842 99.5099 31.2182 97.8605 32.0724C96.211 32.8971 94.2523 33.3095 91.9843 33.3095Z" fill="white"/>
<path d="M106.669 20.6735C106.669 18.1993 107.155 16.0049 108.127 14.0904C109.129 12.1758 110.469 10.7031 112.148 9.67221C113.856 8.6413 115.756 8.12585 117.847 8.12585C119.673 8.12585 121.264 8.49403 122.619 9.23039C124.003 9.96675 125.108 10.8946 125.933 12.0138V8.52348H132.162V33.0002H125.933V29.4215C125.137 30.5702 124.033 31.5275 122.619 32.2933C121.235 33.0297 119.629 33.3978 117.803 33.3978C115.741 33.3978 113.856 32.8677 112.148 31.8073C110.469 30.7469 109.129 29.2595 108.127 27.3449C107.155 25.4009 106.669 23.1771 106.669 20.6735ZM125.933 20.7618C125.933 19.2597 125.638 17.9784 125.049 16.918C124.46 15.8282 123.665 15.0035 122.663 14.4438C121.662 13.8548 120.587 13.5602 119.438 13.5602C118.289 13.5602 117.229 13.84 116.257 14.3997C115.285 14.9593 114.489 15.784 113.871 16.8738C113.282 17.9342 112.987 19.2008 112.987 20.6735C112.987 22.1462 113.282 23.4422 113.871 24.5615C114.489 25.6513 115.285 26.4908 116.257 27.0798C117.258 27.6689 118.319 27.9635 119.438 27.9635C120.587 27.9635 121.662 27.6837 122.663 27.124C123.665 26.5349 124.46 25.7102 125.049 24.6498C125.638 23.56 125.933 22.264 125.933 20.7618Z" fill="white"/>
<path d="M151.767 8.17003C154.683 8.17003 157.039 9.09785 158.836 10.9535C160.633 12.7797 161.531 15.3422 161.531 18.6411V33.0002H155.346V19.4806C155.346 17.5366 154.86 16.0491 153.888 15.0182C152.916 13.9578 151.59 13.4277 149.911 13.4277C148.203 13.4277 146.848 13.9578 145.847 15.0182C144.875 16.0491 144.389 17.5366 144.389 19.4806V33.0002H138.203V8.52348H144.389V11.572C145.213 10.5117 146.259 9.68694 147.526 9.09785C148.822 8.4793 150.235 8.17003 151.767 8.17003Z" fill="white"/>
<path d="M165.823 20.6735C165.823 18.1993 166.309 16.0049 167.281 14.0904C168.282 12.1758 169.637 10.7031 171.346 9.67221C173.054 8.6413 174.954 8.12585 177.045 8.12585C178.636 8.12585 180.152 8.4793 181.596 9.18621C183.039 9.86366 184.188 10.7768 185.042 11.9255V0.305664H191.316V33.0002H185.042V29.3773C184.276 30.5849 183.201 31.5569 181.817 32.2933C180.432 33.0297 178.827 33.3978 177.001 33.3978C174.939 33.3978 173.054 32.8677 171.346 31.8073C169.637 30.7469 168.282 29.2595 167.281 27.3449C166.309 25.4009 165.823 23.1771 165.823 20.6735ZM185.086 20.7618C185.086 19.2597 184.792 17.9784 184.202 16.918C183.613 15.8282 182.818 15.0035 181.817 14.4438C180.815 13.8548 179.74 13.5602 178.591 13.5602C177.443 13.5602 176.382 13.84 175.41 14.3997C174.438 14.9593 173.643 15.784 173.024 16.8738C172.435 17.9342 172.141 19.2008 172.141 20.6735C172.141 22.1462 172.435 23.4422 173.024 24.5615C173.643 25.6513 174.438 26.4908 175.41 27.0798C176.412 27.6689 177.472 27.9635 178.591 27.9635C179.74 27.9635 180.815 27.6837 181.817 27.124C182.818 26.5349 183.613 25.7102 184.202 24.6498C184.792 23.56 185.086 22.264 185.086 20.7618Z" fill="white"/>
<path d="M220.111 20.2317C220.111 21.1153 220.052 21.9106 219.934 22.6175H202.04C202.187 24.3848 202.806 25.7691 203.896 26.7706C204.986 27.772 206.326 28.2728 207.916 28.2728C210.214 28.2728 211.849 27.286 212.821 25.3126H219.492C218.785 27.6689 217.43 29.6129 215.427 31.1446C213.424 32.6468 210.965 33.3978 208.049 33.3978C205.693 33.3978 203.572 32.8824 201.687 31.8515C199.831 30.7911 198.373 29.3037 197.313 27.3891C196.282 25.4746 195.766 23.2655 195.766 20.7618C195.766 18.2288 196.282 16.0049 197.313 14.0904C198.344 12.1758 199.787 10.7031 201.643 9.67221C203.498 8.6413 205.634 8.12585 208.049 8.12585C210.376 8.12585 212.452 8.62657 214.279 9.62803C216.134 10.6295 217.563 12.058 218.564 13.9137C219.595 15.7398 220.111 17.8458 220.111 20.2317ZM213.704 18.4644C213.675 16.8738 213.1 15.6073 211.981 14.6648C210.862 13.6928 209.492 13.2068 207.872 13.2068C206.341 13.2068 205.045 13.678 203.984 14.6206C202.953 15.5337 202.32 16.8149 202.084 18.4644H213.704Z" fill="white"/>
<path d="M247.379 20.2317C247.379 21.1153 247.32 21.9106 247.202 22.6175H229.309C229.456 24.3848 230.074 25.7691 231.164 26.7706C232.254 27.772 233.594 28.2728 235.185 28.2728C237.482 28.2728 239.117 27.286 240.089 25.3126H246.76C246.054 27.6689 244.699 29.6129 242.696 31.1446C240.693 32.6468 238.233 33.3978 235.317 33.3978C232.961 33.3978 230.84 32.8824 228.955 31.8515C227.1 30.7911 225.642 29.3037 224.581 27.3891C223.55 25.4746 223.035 23.2655 223.035 20.7618C223.035 18.2288 223.55 16.0049 224.581 14.0904C225.612 12.1758 227.055 10.7031 228.911 9.67221C230.767 8.6413 232.902 8.12585 235.317 8.12585C237.644 8.12585 239.721 8.62657 241.547 9.62803C243.403 10.6295 244.831 12.058 245.833 13.9137C246.864 15.7398 247.379 17.8458 247.379 20.2317ZM240.973 18.4644C240.943 16.8738 240.369 15.6073 239.25 14.6648C238.13 13.6928 236.761 13.2068 235.141 13.2068C233.609 13.2068 232.313 13.678 231.253 14.6206C230.222 15.5337 229.588 16.8149 229.353 18.4644H240.973Z" fill="white"/>
<path d="M258.079 12.058C258.875 10.9388 259.964 10.0109 261.349 9.27457C262.763 8.50876 264.368 8.12585 266.165 8.12585C268.256 8.12585 270.141 8.6413 271.82 9.67221C273.528 10.7031 274.868 12.1758 275.84 14.0904C276.842 15.9755 277.343 18.1698 277.343 20.6735C277.343 23.1771 276.842 25.4009 275.84 27.3449C274.868 29.2595 273.528 30.7469 271.82 31.8073C270.141 32.8677 268.256 33.3978 266.165 33.3978C264.368 33.3978 262.777 33.0297 261.393 32.2933C260.038 31.5569 258.933 30.6291 258.079 29.5098V44.6642H251.894V8.52348H258.079V12.058ZM271.025 20.6735C271.025 19.2008 270.715 17.9342 270.097 16.8738C269.508 15.784 268.712 14.9593 267.711 14.3997C266.739 13.84 265.679 13.5602 264.53 13.5602C263.411 13.5602 262.35 13.8548 261.349 14.4438C260.377 15.0035 259.581 15.8282 258.963 16.918C258.374 18.0078 258.079 19.2891 258.079 20.7618C258.079 22.2346 258.374 23.5158 258.963 24.6057C259.581 25.6955 260.377 26.5349 261.349 27.124C262.35 27.6837 263.411 27.9635 264.53 27.9635C265.679 27.9635 266.739 27.6689 267.711 27.0798C268.712 26.4908 269.508 25.6513 270.097 24.5615C270.715 23.4717 271.025 22.1757 271.025 20.6735Z" fill="white"/>
</svg>
