<svg width="291" height="47" viewBox="0 0 291 47" fill="none" xmlns="http://www.w3.org/2000/svg">
<path d="M9.38536 2.1481V34H0.53008V2.1481H9.38536ZM16.5969 2.1481H25.5425L20.3468 14.8889H14.4282L16.5969 2.1481ZM63.164 8.42812C66.3568 8.42812 68.8567 9.39196 70.6639 11.3196C72.5012 13.2473 73.4199 15.8828 73.4199 19.2261V34H64.5646V20.4008C64.5646 19.0454 64.1881 17.9912 63.4351 17.2382C62.6821 16.4852 61.658 16.1087 60.3629 16.1087C59.0677 16.1087 58.0436 16.4852 57.2906 17.2382C56.5376 17.9912 56.1611 19.0454 56.1611 20.4008V34H47.3059V20.4008C47.3059 19.0454 46.9294 17.9912 46.1764 17.2382C45.4535 16.4852 44.4445 16.1087 43.1493 16.1087C41.824 16.1087 40.7849 16.4852 40.0319 17.2382C39.2789 17.9912 38.9024 19.0454 38.9024 20.4008V34H30.0471V8.65402H38.9024V11.9973C39.6855 10.913 40.6945 10.0546 41.9294 9.42208C43.1945 8.75944 44.6402 8.42812 46.2667 8.42812C48.1342 8.42812 49.7908 8.83474 51.2365 9.64798C52.7124 10.4612 53.872 11.6058 54.7154 13.0817C55.619 11.6961 56.8087 10.5817 58.2846 9.73834C59.7605 8.86486 61.387 8.42812 63.164 8.42812ZM98.9371 34.3163C95.2323 34.3163 92.1902 33.4428 89.8107 31.6958C87.4312 29.9187 86.1511 27.3887 85.9704 24.1056H95.413C95.5034 25.22 95.8347 26.0333 96.407 26.5453C96.9793 27.0573 97.7172 27.3134 98.6208 27.3134C99.434 27.3134 100.097 27.1176 100.609 26.726C101.151 26.3043 101.422 25.7321 101.422 25.0092C101.422 24.0755 100.985 23.3526 100.112 22.8405C99.2383 22.3285 97.8226 21.7562 95.8648 21.1237C93.7865 20.4309 92.0998 19.7683 90.8047 19.1358C89.5396 18.4731 88.4252 17.5244 87.4613 16.2894C86.5276 15.0244 86.0608 13.3829 86.0608 11.3648C86.0608 9.31666 86.5728 7.5697 87.5969 6.12394C88.621 4.64806 90.0366 3.53362 91.8438 2.78062C93.651 2.02762 95.6992 1.65112 97.9883 1.65112C101.693 1.65112 104.645 2.5246 106.844 4.27156C109.072 5.9884 110.262 8.41306 110.413 11.5455H100.789C100.759 10.5817 100.458 9.85882 99.8858 9.3769C99.3437 8.89498 98.6359 8.65402 97.7624 8.65402C97.0997 8.65402 96.5576 8.8498 96.1359 9.24136C95.7142 9.63292 95.5034 10.1901 95.5034 10.913C95.5034 11.5154 95.7293 12.0425 96.1811 12.4943C96.663 12.916 97.2503 13.2925 97.9431 13.6238C98.6359 13.925 99.6599 14.3166 101.015 14.7985C103.033 15.4913 104.69 16.184 105.985 16.8768C107.31 17.5394 108.44 18.4882 109.374 19.7231C110.337 20.9279 110.819 22.464 110.819 24.3315C110.819 26.229 110.337 27.9308 109.374 29.4368C108.44 30.9428 107.069 32.1326 105.262 33.006C103.485 33.8795 101.377 34.3163 98.9371 34.3163ZM113.49 21.3044C113.49 18.684 113.957 16.3949 114.891 14.4371C115.855 12.4793 117.15 10.9733 118.776 9.91906C120.433 8.86486 122.27 8.33776 124.288 8.33776C126.035 8.33776 127.541 8.68414 128.806 9.3769C130.071 10.0697 131.05 11.0034 131.743 12.1781V8.65402H140.598V34H131.743V30.476C131.05 31.6506 130.056 32.5844 128.761 33.2771C127.496 33.9699 126.005 34.3163 124.288 34.3163C122.27 34.3163 120.433 33.7892 118.776 32.735C117.15 31.6808 115.855 30.1748 114.891 28.217C113.957 26.229 113.49 23.9249 113.49 21.3044ZM131.743 21.3044C131.743 19.6779 131.291 18.3978 130.388 17.4641C129.514 16.5304 128.43 16.0635 127.135 16.0635C125.809 16.0635 124.71 16.5304 123.837 17.4641C122.963 18.3677 122.526 19.6478 122.526 21.3044C122.526 22.9309 122.963 24.2261 123.837 25.1899C124.71 26.1236 125.809 26.5905 127.135 26.5905C128.43 26.5905 129.514 26.1236 130.388 25.1899C131.291 24.2562 131.743 22.961 131.743 21.3044ZM162.225 8.42812C165.147 8.42812 167.466 9.40702 169.183 11.3648C170.9 13.2925 171.758 15.9129 171.758 19.2261V34H162.903V20.4008C162.903 18.9551 162.527 17.8256 161.774 17.0123C161.021 16.169 160.012 15.7473 158.747 15.7473C157.421 15.7473 156.382 16.169 155.629 17.0123C154.876 17.8256 154.5 18.9551 154.5 20.4008V34H145.644V8.65402H154.5V12.2684C155.283 11.1239 156.337 10.2052 157.662 9.51244C158.988 8.78956 160.509 8.42812 162.225 8.42812ZM175.172 21.3044C175.172 18.684 175.638 16.3949 176.572 14.4371C177.536 12.4793 178.846 10.9733 180.503 9.91906C182.159 8.86486 183.997 8.33776 186.015 8.33776C187.641 8.33776 189.087 8.68414 190.352 9.3769C191.647 10.0395 192.656 10.9582 193.379 12.1329V0.566799H202.28V34H193.379V30.476C192.686 31.6506 191.707 32.5844 190.442 33.2771C189.177 33.9699 187.686 34.3163 185.97 34.3163C183.952 34.3163 182.114 33.7892 180.458 32.735C178.831 31.6808 177.536 30.1748 176.572 28.217C175.638 26.229 175.172 23.9249 175.172 21.3044ZM193.424 21.3044C193.424 19.6779 192.973 18.3978 192.069 17.4641C191.195 16.5304 190.111 16.0635 188.816 16.0635C187.491 16.0635 186.391 16.5304 185.518 17.4641C184.644 18.3677 184.208 19.6478 184.208 21.3044C184.208 22.9309 184.644 24.2261 185.518 25.1899C186.391 26.1236 187.491 26.5905 188.816 26.5905C190.111 26.5905 191.195 26.1236 192.069 25.1899C192.973 24.2562 193.424 22.961 193.424 21.3044ZM231.542 21.0333C231.542 21.7261 231.497 22.4189 231.407 23.1116H214.645C214.735 24.4971 215.112 25.5363 215.774 26.229C216.467 26.8917 217.341 27.223 218.395 27.223C219.871 27.223 220.925 26.5604 221.557 25.2351H231C230.608 26.982 229.84 28.5483 228.696 29.9338C227.581 31.2892 226.166 32.3585 224.449 33.1416C222.732 33.9247 220.834 34.3163 218.756 34.3163C216.256 34.3163 214.027 33.7892 212.07 32.735C210.142 31.6808 208.621 30.1748 207.506 28.217C206.422 26.2592 205.88 23.955 205.88 21.3044C205.88 18.6539 206.422 16.3647 207.506 14.4371C208.591 12.4793 210.097 10.9733 212.024 9.91906C213.982 8.86486 216.226 8.33776 218.756 8.33776C221.256 8.33776 223.47 8.8498 225.398 9.87388C227.325 10.898 228.831 12.3738 229.916 14.3015C231 16.1991 231.542 18.443 231.542 21.0333ZM222.506 18.8195C222.506 17.7352 222.145 16.8918 221.422 16.2894C220.699 15.6569 219.795 15.3407 218.711 15.3407C217.627 15.3407 216.738 15.6419 216.045 16.2443C215.353 16.8165 214.901 17.675 214.69 18.8195H222.506ZM259.383 21.0333C259.383 21.7261 259.337 22.4189 259.247 23.1116H242.485C242.576 24.4971 242.952 25.5363 243.615 26.229C244.307 26.8917 245.181 27.223 246.235 27.223C247.711 27.223 248.765 26.5604 249.398 25.2351H258.84C258.449 26.982 257.681 28.5483 256.536 29.9338C255.422 31.2892 254.006 32.3585 252.289 33.1416C250.572 33.9247 248.675 34.3163 246.597 34.3163C244.097 34.3163 241.868 33.7892 239.91 32.735C237.982 31.6808 236.461 30.1748 235.347 28.217C234.262 26.2592 233.72 23.955 233.72 21.3044C233.72 18.6539 234.262 16.3647 235.347 14.4371C236.431 12.4793 237.937 10.9733 239.865 9.91906C241.823 8.86486 244.067 8.33776 246.597 8.33776C249.097 8.33776 251.31 8.8498 253.238 9.87388C255.166 10.898 256.672 12.3738 257.756 14.3015C258.84 16.1991 259.383 18.443 259.383 21.0333ZM250.347 18.8195C250.347 17.7352 249.985 16.8918 249.262 16.2894C248.539 15.6569 247.636 15.3407 246.551 15.3407C245.467 15.3407 244.579 15.6419 243.886 16.2443C243.193 16.8165 242.741 17.675 242.53 18.8195H250.347ZM271.862 12.1781C272.554 11.0034 273.533 10.0697 274.798 9.3769C276.063 8.68414 277.554 8.33776 279.271 8.33776C281.289 8.33776 283.112 8.86486 284.738 9.91906C286.395 10.9733 287.69 12.4793 288.624 14.4371C289.587 16.3949 290.069 18.684 290.069 21.3044C290.069 23.9249 289.587 26.229 288.624 28.217C287.69 30.1748 286.395 31.6808 284.738 32.735C283.112 33.7892 281.289 34.3163 279.271 34.3163C277.554 34.3163 276.063 33.9699 274.798 33.2771C273.564 32.5844 272.585 31.6506 271.862 30.476V46.1082H263.006V8.65402H271.862V12.1781ZM281.078 21.3044C281.078 19.6478 280.627 18.3677 279.723 17.4641C278.85 16.5304 277.765 16.0635 276.47 16.0635C275.175 16.0635 274.076 16.5304 273.172 17.4641C272.298 18.3978 271.862 19.6779 271.862 21.3044C271.862 22.961 272.298 24.2562 273.172 25.1899C274.076 26.1236 275.175 26.5905 276.47 26.5905C277.765 26.5905 278.85 26.1236 279.723 25.1899C280.627 24.2261 281.078 22.9309 281.078 21.3044Z" fill="white"/>
</svg>
