<?xml version="1.0" standalone="no"?>
<!DOCTYPE svg PUBLIC "-//W3C//DTD SVG 20010904//EN"
 "http://www.w3.org/TR/2001/REC-SVG-20010904/DTD/svg10.dtd">
<svg version="1.0" xmlns="http://www.w3.org/2000/svg"
 width="628.000000pt" height="628.000000pt" viewBox="0 0 628.000000 628.000000"
 preserveAspectRatio="xMidYMid meet">
<metadata>
Created by potrace 1.14, written by Peter Selinger 2001-2017
</metadata>
<g transform="translate(0.000000,628.000000) scale(0.100000,-0.100000)"
fill="#000000" stroke="none">
<path d="M4400 5900 l0 -260 680 0 680 0 0 -650 0 -650 260 0 260 0 0 910 0
910 -940 0 -940 0 0 -260z"/>
<path d="M0 5461 l0 -260 1473 -4 c1590 -3 1552 -2 1852 -58 1066 -197 1788
-899 1931 -1875 24 -162 24 -466 0 -629 -111 -757 -576 -1385 -1271 -1715
-277 -132 -558 -210 -915 -256 -120 -16 -268 -18 -1342 -21 l-1208 -4 0 1650
0 1651 1128 0 c620 0 1218 -5 1329 -10 207 -10 386 -31 463 -53 l43 -12 -64
-80 c-78 -98 -259 -281 -759 -762 -212 -205 -566 -553 -787 -775 -464 -466
-459 -458 -451 -602 5 -98 30 -150 104 -214 86 -76 62 -74 797 -69 717 4 809
10 1035 67 217 55 421 175 572 337 79 85 160 186 160 201 0 5 -95 75 -212 157
l-212 147 -20 -28 c-153 -210 -304 -300 -561 -333 -127 -17 -413 -31 -630 -31
l-200 0 450 448 c248 246 591 584 761 752 333 327 433 444 505 593 126 260 49
507 -199 635 -147 77 -357 121 -667 142 -99 6 -718 10 -1632 10 l-1473 0 0
-2170 0 -2170 1429 0 c1464 0 1558 2 1826 41 1013 146 1824 699 2244 1529 206
407 301 804 301 1264 0 445 -99 855 -301 1246 -243 468 -619 851 -1096 1113
-294 162 -644 283 -1003 347 -316 56 -244 53 -1882 57 l-1518 4 0 -260z"/>
</g>
</svg>
